<?xml version="1.0" encoding="utf-8"?>
<!-- Generator: Adobe Illustrator 16.0.0, SVG Export Plug-In . SVG Version: 6.00 Build 0)  -->
<!DOCTYPE svg PUBLIC "-//W3C//DTD SVG 1.1//EN" "http://www.w3.org/Graphics/SVG/1.1/DTD/svg11.dtd">
<svg version="1.1" id="Ebene_1" xmlns="http://www.w3.org/2000/svg" xmlns:xlink="http://www.w3.org/1999/xlink" x="0px" y="0px"
	 width="680.311px" height="963.781px" viewBox="0 0 680.311 963.781" enable-background="new 0 0 680.311 963.781"
	 xml:space="preserve">
<g id="personen">
	<path fill="#004979" d="M343.191,333.344c60.913,0,110.575-49.7,110.575-110.551c0-60.888-49.662-110.588-110.575-110.588
		c-60.851,0-110.248,49.7-110.248,110.588C232.943,283.643,282.341,333.344,343.191,333.344"/>
	<path fill="#004979" d="M131.766,410.974c41.096,0,74.708-33.612,74.708-74.683c0-41.172-33.612-74.771-74.708-74.771
		c-41.159,0-74.797,33.6-74.797,74.771C56.969,377.362,90.607,410.974,131.766,410.974"/>
	<path fill="#004979" d="M554.994,410.974c41.121,0,74.771-33.612,74.771-74.683c0-41.172-33.65-74.771-74.771-74.771
		c-41.397,0-74.771,33.6-74.771,74.771C480.223,377.362,513.596,410.974,554.994,410.974"/>
	<path fill="#004979" d="M554.994,439.862c-11.754,0-22.967,2.167-33.649,5.292c13.896,27.275,22.689,57.978,22.689,90.557v238.474
		h130.317V559.219C674.351,493.266,620.682,439.862,554.994,439.862"/>
	<path fill="#004979" d="M343.191,362.684c-95.559,0-173,77.694-173,173.026v307.626h346.341V535.711
		C516.532,440.379,438.825,362.684,343.191,362.684"/>
	<path fill="#004979" d="M12.409,559.219v214.966h130.279V535.723c0-32.58,8.832-63.294,22.69-90.569
		c-10.646-3.125-21.67-5.292-33.336-5.292C66.078,439.862,12.409,493.279,12.409,559.219"/>
</g>
</svg>
